<?xml version="1.0" encoding="iso-8859-1"?>
<!-- Uploaded to: SVG Repo, www.svgrepo.com, Generator: SVG Repo Mixer Tools -->
<svg height="800px" width="800px" version="1.1" id="Layer_1" xmlns="http://www.w3.org/2000/svg" xmlns:xlink="http://www.w3.org/1999/xlink" 
	 viewBox="0 0 206.491 206.491" xml:space="preserve">
<g>
	<g>
		<circle style="fill:#77CBC7;" cx="103.245" cy="103.246" r="103.245"/>
		<path style="fill:#62BAB3;" d="M103.244,0L103.244,0v206.49l0,0c57.021,0,103.246-46.224,103.246-103.244
			C206.491,46.225,160.267,0,103.244,0z"/>
	</g>
	<g>
		<path style="fill:#FFFFFF;" d="M141.901,36.207c-0.218-2.092-1.029-3.631-2.205-3.795c-1.67-0.235-3.417,2.369-3.899,5.814
			c-0.483,3.444,0.479,6.43,2.149,6.663c0.922,0.13,1.866-0.608,2.609-1.873c1.204,0.52,2.467,1.486,2.467,3.272v50.914
			c-5.853,3.257-23.09,10.292-48.875-0.745V46.289c0-1.607,1.022-2.553,2.104-3.104c0.781,1.682,1.892,2.72,2.972,2.567
			c1.67-0.233,2.633-3.218,2.149-6.662c-0.483-3.446-2.229-6.051-3.9-5.815c-0.999,0.14-1.734,1.273-2.07,2.889
			c-3.686,1.14-8.128,4.083-8.128,10.126v53.075l0.022,0.398c1.013,8.676,8.417,24.819,29.097,25.89l0.01,21.675
			c0.01,0.095,0.966,9.829-4.931,16.385c-3.67,4.079-9.272,6.147-16.654,6.147l-0.198,0.011c-0.082,0.009-8.548,0.891-14.607-4.526
			c-3.751-3.352-5.857-8.441-6.294-15.14c5.795-1.556,10.066-6.831,10.066-13.116c0-7.509-6.087-13.596-13.595-13.596
			c-7.509,0-13.596,6.087-13.596,13.596c0,7.508,6.087,13.596,13.596,13.596c0.037,0,0.073-0.005,0.111-0.006
			c0.534,7.526,3.032,13.322,7.452,17.256c5.378,4.788,12.083,5.439,15.333,5.441c0.924,0,1.568-0.054,1.823-0.078
			c8.367-0.019,14.806-2.477,19.139-7.31c6.647-7.414,5.895-17.729,5.78-18.933v-21.372c21.395-0.623,29.015-17.113,30.043-25.919
			l0.022-0.398V46.289C149.896,40.318,145.561,37.377,141.901,36.207z M118.585,118.838c-15.71,0-21.437-9.963-23.441-15.789
			c9.819,3.769,18.483,5.109,25.82,5.109c8.948,0,15.907-1.981,20.627-3.943C139.245,110.11,133.293,118.838,118.585,118.838z"/>
		<path style="fill:#C1E5E5;" d="M141.901,36.207c-0.218-2.092-1.029-3.631-2.205-3.795c-1.67-0.235-3.417,2.369-3.899,5.814
			c-0.483,3.444,0.479,6.43,2.149,6.663c0.922,0.13,1.866-0.608,2.609-1.873c1.204,0.52,2.467,1.486,2.467,3.272v50.914
			c-5.148,2.865-19.11,8.648-39.947,2.486v5.961c6.609,1.804,12.596,2.508,17.889,2.508c8.948,0,15.907-1.981,20.627-3.943
			c-2.346,5.896-8.298,14.623-23.006,14.623c-6.938,0-11.927-1.944-15.51-4.616v8.053c3.657,1.854,8.056,3.105,13.319,3.378
			l0.01,21.675c0.01,0.095,0.966,9.829-4.931,16.385c-2.144,2.383-4.966,4.059-8.398,5.058v3.582
			c4.502-1.123,8.179-3.247,10.975-6.365c6.647-7.414,5.895-17.729,5.78-18.933v-21.372c21.395-0.623,29.015-17.113,30.043-25.919
			l0.022-0.398V46.289C149.896,40.318,145.561,37.377,141.901,36.207z"/>
	</g>
</g>
</svg>